<svg width="1200" height="800" viewBox="0 0 1200 800" fill="none" xmlns="http://www.w3.org/2000/svg">
  <!-- Background -->
  <rect width="1200" height="800" fill="#0a0a0a"/>
  
  <!-- Calculator -->
  <g transform="translate(100, 150)" opacity="0.15">
    <rect x="0" y="0" width="120" height="160" rx="8" fill="#f95700" stroke="#ff6b1a" stroke-width="2"/>
    <rect x="10" y="10" width="100" height="30" rx="4" fill="#1a1a1a"/>
    <!-- Calculator buttons -->
    <circle cx="25" cy="60" r="8" fill="#333"/>
    <circle cx="45" cy="60" r="8" fill="#333"/>
    <circle cx="65" cy="60" r="8" fill="#333"/>
    <circle cx="85" cy="60" r="8" fill="#f95700"/>
    <circle cx="25" cy="80" r="8" fill="#333"/>
    <circle cx="45" cy="80" r="8" fill="#333"/>
    <circle cx="65" cy="80" r="8" fill="#333"/>
    <circle cx="85" cy="80" r="8" fill="#f95700"/>
    <circle cx="25" cy="100" r="8" fill="#333"/>
    <circle cx="45" cy="100" r="8" fill="#333"/>
    <circle cx="65" cy="100" r="8" fill="#333"/>
    <circle cx="85" cy="100" r="8" fill="#f95700"/>
    <rect x="25" y="115" width="40" height="15" rx="7" fill="#f95700"/>
    <circle cx="85" cy="122" r="8" fill="#f95700"/>
  </g>
  
  <!-- Documents -->
  <g transform="translate(300, 100)" opacity="0.12">
    <rect x="0" y="0" width="80" height="100" rx="4" fill="#f95700" stroke="#ff6b1a" stroke-width="1"/>
    <rect x="10" y="15" width="60" height="2" fill="#1a1a1a"/>
    <rect x="10" y="25" width="50" height="2" fill="#1a1a1a"/>
    <rect x="10" y="35" width="55" height="2" fill="#1a1a1a"/>
    <rect x="10" y="45" width="45" height="2" fill="#1a1a1a"/>
    <rect x="10" y="55" width="60" height="2" fill="#1a1a1a"/>
    <rect x="10" y="65" width="40" height="2" fill="#1a1a1a"/>
    <rect x="10" y="75" width="50" height="2" fill="#1a1a1a"/>
  </g>
  
  <!-- Chart/Graph -->
  <g transform="translate(500, 200)" opacity="0.1">
    <rect x="0" y="0" width="150" height="100" rx="6" fill="none" stroke="#f95700" stroke-width="2"/>
    <!-- Chart bars -->
    <rect x="20" y="70" width="15" height="20" fill="#f95700"/>
    <rect x="40" y="50" width="15" height="40" fill="#f95700"/>
    <rect x="60" y="30" width="15" height="60" fill="#f95700"/>
    <rect x="80" y="40" width="15" height="50" fill="#f95700"/>
    <rect x="100" y="20" width="15" height="70" fill="#f95700"/>
    <rect x="120" y="35" width="15" height="55" fill="#f95700"/>
    <!-- Chart line -->
    <polyline points="27,75 47,55 67,35 87,45 107,25 127,40" fill="none" stroke="#ff6b1a" stroke-width="2"/>
  </g>
  
  <!-- Coins -->
  <g transform="translate(700, 300)" opacity="0.08">
    <circle cx="0" cy="0" r="25" fill="#f95700" stroke="#ff6b1a" stroke-width="2"/>
    <text x="0" y="5" text-anchor="middle" fill="#1a1a1a" font-size="20" font-weight="bold">$</text>
    <circle cx="40" cy="-10" r="20" fill="#f95700" stroke="#ff6b1a" stroke-width="2"/>
    <text x="40" y="-5" text-anchor="middle" fill="#1a1a1a" font-size="16" font-weight="bold">$</text>
    <circle cx="70" cy="5" r="15" fill="#f95700" stroke="#ff6b1a" stroke-width="2"/>
    <text x="70" y="9" text-anchor="middle" fill="#1a1a1a" font-size="12" font-weight="bold">$</text>
  </g>
  
  <!-- Spreadsheet -->
  <g transform="translate(900, 150)" opacity="0.1">
    <rect x="0" y="0" width="120" height="80" rx="4" fill="none" stroke="#f95700" stroke-width="2"/>
    <!-- Grid lines -->
    <line x1="30" y1="0" x2="30" y2="80" stroke="#f95700" stroke-width="1" opacity="0.5"/>
    <line x1="60" y1="0" x2="60" y2="80" stroke="#f95700" stroke-width="1" opacity="0.5"/>
    <line x1="90" y1="0" x2="90" y2="80" stroke="#f95700" stroke-width="1" opacity="0.5"/>
    <line x1="0" y1="20" x2="120" y2="20" stroke="#f95700" stroke-width="1" opacity="0.5"/>
    <line x1="0" y1="40" x2="120" y2="40" stroke="#f95700" stroke-width="1" opacity="0.5"/>
    <line x1="0" y1="60" x2="120" y2="60" stroke="#f95700" stroke-width="1" opacity="0.5"/>
    <!-- Data cells -->
    <rect x="5" y="5" width="20" height="10" fill="#f95700" opacity="0.3"/>
    <rect x="35" y="25" width="20" height="10" fill="#f95700" opacity="0.3"/>
    <rect x="65" y="45" width="20" height="10" fill="#f95700" opacity="0.3"/>
  </g>
  
  <!-- Additional decorative elements -->
  <g transform="translate(200, 400)" opacity="0.06">
    <circle cx="0" cy="0" r="3" fill="#f95700"/>
    <circle cx="50" cy="20" r="2" fill="#f95700"/>
    <circle cx="100" cy="-10" r="4" fill="#f95700"/>
    <circle cx="150" cy="30" r="2" fill="#f95700"/>
  </g>
  
  <g transform="translate(600, 500)" opacity="0.06">
    <circle cx="0" cy="0" r="2" fill="#f95700"/>
    <circle cx="80" cy="-20" r="3" fill="#f95700"/>
    <circle cx="160" cy="10" r="2" fill="#f95700"/>
  </g>
  
  <!-- Percentage symbol -->
  <g transform="translate(400, 450)" opacity="0.08">
    <text x="0" y="0" fill="#f95700" font-size="60" font-weight="bold">%</text>
  </g>
  
  <!-- Balance scale -->
  <g transform="translate(150, 500)" opacity="0.1">
    <line x1="0" y1="0" x2="80" y2="0" stroke="#f95700" stroke-width="3"/>
    <line x1="40" y1="0" x2="40" y2="-30" stroke="#f95700" stroke-width="3"/>
    <circle cx="40" cy="-35" r="5" fill="#f95700"/>
    <!-- Scale pans -->
    <ellipse cx="10" cy="0" rx="15" ry="5" fill="none" stroke="#f95700" stroke-width="2"/>
    <ellipse cx="70" cy="0" rx="15" ry="5" fill="none" stroke="#f95700" stroke-width="2"/>
  </g>
</svg>